<?xml version="1.0" encoding="UTF-8"?>
<svg version="1.1" xmlns="http://www.w3.org/2000/svg" width="1535" height="1535">
<path d="M0 0 C506.55 0 1013.1 0 1535 0 C1535 506.55 1535 1013.1 1535 1535 C1028.45 1535 521.9 1535 0 1535 C0 1028.45 0 521.9 0 0 Z " fill="#FBF6EC" transform="translate(0,0)"/>
<path d="M0 0 C1.73574783 -0.00422974 1.73574783 -0.00422974 3.50656128 -0.00854492 C5.42924835 -0.00550858 5.42924835 -0.00550858 7.39077759 -0.00241089 C8.74611457 -0.00376525 10.10145119 -0.00554538 11.45678711 -0.00772095 C15.15677898 -0.0123024 18.85674312 -0.01049986 22.55673552 -0.00734186 C26.44922173 -0.00480855 30.34170558 -0.00715975 34.23419189 -0.00872803 C40.8000633 -0.0105525 47.36592351 -0.00814203 53.93179321 -0.00338745 C61.45266718 0.00199689 68.97351379 0.00033677 76.49438703 -0.00521386 C82.98564837 -0.00980827 89.47690164 -0.0103634 95.96816409 -0.00777519 C99.82831238 -0.00623904 103.68844802 -0.00594221 107.54859543 -0.00931168 C122.21716122 -0.02028513 136.87467472 0.0375387 151.5362854 0.55715942 C153.12564942 0.61209973 153.12564942 0.61209973 154.74712181 0.66814995 C194.52824455 2.26980546 233.86108791 13.06162263 264.67056274 39.12698364 C265.30607056 39.64003052 265.94157837 40.15307739 266.59634399 40.68167114 C276.81218329 49.06273664 285.81710386 60.87785803 292.67056274 72.12698364 C292.67056274 73.11698364 292.67056274 74.10698364 292.67056274 75.12698364 C293.33056274 75.12698364 293.99056274 75.12698364 294.67056274 75.12698364 C299.38173867 84.91439655 303.85058912 94.7291405 307.04556274 105.12698364 C307.27130981 105.83435669 307.49705688 106.54172974 307.72964478 107.27053833 C312.16982254 122.47024798 313.17159865 138.27428327 313.06167603 154.01858521 C313.04552524 156.75834569 313.06167962 159.49664083 313.08071899 162.23635864 C313.09881285 177.13310852 311.28937462 191.41576263 307.35806274 205.81448364 C307.04167847 206.9885376 307.04167847 206.9885376 306.71890259 208.18630981 C297.11372122 242.64516069 275.81240105 273.65620909 245.67056274 293.12698364 C244.57872681 293.84499146 243.48689087 294.56299927 242.36196899 295.30276489 C223.48145379 307.33824337 202.18436118 314.22951987 180.17056274 317.75198364 C179.430802 317.87533081 178.69104126 317.99867798 177.92886353 318.12576294 C162.21011215 320.48341249 146.07457167 320.27538704 130.21743774 320.22463989 C128.45240317 320.22276701 126.68736806 320.22134724 124.92233276 320.22035217 C120.35230996 320.21659534 115.78232066 320.20682649 111.21231079 320.19564819 C106.51871188 320.1852841 101.82510738 320.18082296 97.13150024 320.17581177 C87.97783996 320.16519557 78.82420417 320.14820515 69.67056274 320.12698364 C69.83308249 321.12289804 69.99560225 322.11881243 70.16304684 323.14490604 C70.71703948 327.04530656 70.80757615 330.90560231 70.79081726 334.84022522 C70.79167169 335.58532917 70.79252611 336.33043312 70.79340643 337.09811598 C70.79504456 339.57773423 70.78956733 342.0572838 70.78408813 344.53689575 C70.78380588 346.3211568 70.78396475 348.10541797 70.78453064 349.88967896 C70.78481711 354.72176518 70.77894468 359.55382649 70.77195668 364.38590693 C70.7656981 369.4401059 70.76511736 374.49430545 70.76393127 379.54850769 C70.76082535 389.11413284 70.7526219 398.67974653 70.74258178 408.24536663 C70.73139773 419.13770227 70.72590442 430.03003847 70.72088635 440.92237842 C70.71043868 463.32391984 70.69285352 485.7254511 70.67056274 508.12698364 C60.90905286 508.1501081 51.14754945 508.16789925 41.3860178 508.17879581 C36.8538218 508.18402442 32.32164448 508.19112165 27.78945923 508.2024231 C23.41933444 508.21325279 19.04922767 508.21926065 14.6790905 508.22186089 C13.00805312 508.22371499 11.33701677 508.22733532 9.66598701 508.2327137 C7.33358723 508.23992523 5.00126282 508.24097454 2.66885376 508.24050903 C1.97114365 508.24410431 1.27343353 508.24769958 0.55458069 508.25140381 C-4.21538509 508.2410358 -4.21538509 508.2410358 -5.32943726 507.12698364 C-5.43230612 505.12900863 -5.46344981 503.12733741 -5.46810246 501.12672138 C-5.4735769 499.81314256 -5.47905134 498.49956374 -5.48469168 497.1461795 C-5.48576826 495.66853359 -5.48675288 494.19088761 -5.48765564 492.71324158 C-5.49221791 491.15735247 -5.49721743 489.6014646 -5.50261921 488.04557818 C-5.51626442 483.74518458 -5.52363817 479.44479892 -5.53004587 475.14438927 C-5.53802928 470.50898499 -5.55174083 465.87359734 -5.5647583 461.23820496 C-5.58946226 452.11680828 -5.60883156 442.99540744 -5.62651104 433.87399475 C-5.64751643 423.15203607 -5.67397555 412.43009287 -5.70068251 401.70814713 C-5.74850767 382.44029674 -5.79166891 363.1724387 -5.8321228 343.90457153 C-5.87086252 325.45632172 -5.91227385 307.00808097 -5.9571228 288.55984497 C-5.95984521 287.43857398 -5.96256761 286.31730298 -5.96537252 285.16205408 C-5.97633715 280.64705007 -5.98731044 276.13204609 -5.99829487 271.61704213 C-6.12399919 219.90098554 -6.23189121 168.18490777 -6.32026386 116.46877384 C-6.32766615 112.14207051 -6.33526069 107.81536754 -6.34292372 103.48866466 C-6.37415714 85.81436731 -6.40033545 68.14008662 -6.41328239 50.465765 C-6.41677305 45.80266488 -6.4224 41.13957563 -6.4300251 36.47648048 C-6.43837314 31.27716367 -6.44211417 26.07786742 -6.44160581 20.87854409 C-6.44217668 19.04357403 -6.44441484 17.20860359 -6.44846988 15.37363791 C-6.45355697 12.94505422 -6.45262049 10.51655242 -6.4499054 8.08796692 C-6.45281462 7.38420939 -6.45572384 6.68045186 -6.45872122 5.95536834 C-6.43978153 0.00992262 -5.80540119 0.00216461 0 0 Z " fill="#131313" transform="translate(786.3294372558594,428.8730163574219)"/>
<path d="M0 0 C9.50074325 -0.02312484 19.00147688 -0.0409158 28.50224209 -0.05181217 C32.91337004 -0.05704069 37.3244788 -0.06413777 41.7355957 -0.07543945 C45.98901115 -0.08626944 50.24240809 -0.09227707 54.49583626 -0.09487724 C56.12221633 -0.09673129 57.74859534 -0.10035152 59.37496758 -0.10573006 C61.64510193 -0.11294198 63.91515885 -0.11399088 66.18530273 -0.11352539 C68.12722755 -0.11685631 68.12722755 -0.11685631 70.10838318 -0.12025452 C73 0 73 0 74 1 C74.09869378 2.98334664 74.1255569 4.97027214 74.12584114 6.95607281 C74.12975276 8.91074381 74.12975276 8.91074381 74.13374341 10.90490311 C74.13158083 12.37008915 74.12932416 13.83527505 74.12698364 15.30046082 C74.12813449 16.84227149 74.12972177 18.38408188 74.13171089 19.9258917 C74.1359098 24.18360287 74.13381094 28.44129181 74.13072467 32.6990031 C74.12847281 37.2834831 74.13194928 41.86795913 74.13470459 46.45243835 C74.13916497 55.44537567 74.13818424 64.43830466 74.13529195 73.43124231 C74.13303714 80.74421974 74.13272574 88.05719483 74.13381577 95.3701725 C74.133969 96.40953072 74.13412223 97.44888893 74.13428011 98.51974285 C74.13459983 100.63109308 74.13492404 102.74244331 74.1352527 104.85379354 C74.13810874 124.68438885 74.13481948 144.51497956 74.12945233 164.34557412 C74.12499273 181.34846775 74.12575301 198.35135454 74.13037109 215.35424805 C74.13572942 235.0918466 74.13782502 254.82944109 74.13475883 274.56704026 C74.13444028 276.67476769 74.13412591 278.78249512 74.13381577 280.89022255 C74.13366149 281.92726305 74.13350721 282.96430355 74.13334826 284.03276953 C74.13248625 291.3274065 74.13393938 298.6220409 74.13629532 305.91667747 C74.13910786 314.82123339 74.1383248 323.7257805 74.13301457 332.63033541 C74.13039584 337.1707041 74.12934126 341.71105813 74.13266373 346.2514267 C74.13566504 350.41619798 74.13397059 354.58094116 74.12868617 358.74570993 C74.12757813 360.24457303 74.12811688 361.74343855 74.13056196 363.24230006 C74.14955922 375.86636061 73.87672079 388.42494694 71.25 400.8125 C70.98558105 402.07852051 70.98558105 402.07852051 70.71582031 403.37011719 C65.26713735 428.71172292 55.15259394 449.24144138 37 468 C35.80697266 469.25296875 35.80697266 469.25296875 34.58984375 470.53125 C30.64252901 474.60035122 30.64252901 474.60035122 29 476 C28.34 476 27.68 476 27 476 C27 476.66 27 477.32 27 478 C21.58823529 482 21.58823529 482 19 482 C19 482.66 19 483.32 19 484 C-9.14014196 500.97361819 -35.24201316 509.15929769 -68.25 509.1875 C-68.93723145 509.18858765 -69.62446289 509.18967529 -70.33251953 509.1907959 C-97.44572303 509.18594386 -122.16992209 504.07467743 -146 491 C-147.04542969 490.44570313 -148.09085937 489.89140625 -149.16796875 489.3203125 C-161.77597709 482.35842679 -173.56817549 472.91396836 -183 462 C-183 461.34 -183 460.68 -183 460 C-183.66 460 -184.32 460 -185 460 C-186.515625 458.12890625 -186.515625 458.12890625 -188.25 455.5625 C-188.87261719 454.64210938 -189.49523437 453.72171875 -190.13671875 452.7734375 C-191.05904297 451.40058594 -191.05904297 451.40058594 -192 450 C-192.78310547 448.90558594 -192.78310547 448.90558594 -193.58203125 447.7890625 C-206.62965684 429.26763092 -211.68471915 406.51159053 -213.50805664 384.29638672 C-213.68687376 382.13257795 -213.88247143 379.97075876 -214.08007812 377.80859375 C-214.2041276 376.37508641 -214.32720567 374.94149461 -214.44921875 373.5078125 C-214.55580811 372.25629395 -214.66239746 371.00477539 -214.7722168 369.71533203 C-215.1054131 362.81784708 -215 355.90552811 -215 349 C-189.59 349 -164.18 349 -138 349 C-137.01 364.84 -137.01 364.84 -136 381 C-133.5589797 393.28646885 -130.40699228 402.99810736 -123.171875 413.15234375 C-122 415 -122 415 -122 417 C-121.4328125 417.26167969 -120.865625 417.52335937 -120.28125 417.79296875 C-117.8151383 419.0978121 -115.72953223 420.63663494 -113.5 422.3125 C-96.89982733 433.95197967 -75.55397768 436.19082118 -55.81640625 433.49609375 C-40.13979959 430.68810382 -24.62958528 424.17254591 -15 411 C-14.67 410.34 -14.34 409.68 -14 409 C-13.34 409 -12.68 409 -12 409 C-11.62875 407.824375 -11.62875 407.824375 -11.25 406.625 C-10.28217685 403.81831287 -9.22286357 401.16279833 -8.0625 398.4375 C-2.11898329 383.64524012 -1.85771916 368.31140035 -1.80381775 352.58624268 C-1.79510343 351.05795715 -1.78597763 349.52967393 -1.77647978 348.00139308 C-1.75174757 343.83274039 -1.73279835 339.66407899 -1.7148484 335.49539232 C-1.69440927 330.9883852 -1.6685288 326.48140882 -1.64332581 321.97442627 C-1.60045414 314.17601096 -1.56099196 306.37758446 -1.5238781 298.57913971 C-1.4702134 287.30404512 -1.41135611 276.02898229 -1.35125155 264.75392041 C-1.25386431 246.45868617 -1.16064772 228.16343318 -1.07006836 209.86816406 C-0.98209578 192.10122524 -0.89215002 174.3342982 -0.79956055 156.56738281 C-0.79384928 155.47132112 -0.78813801 154.37525943 -0.78225368 153.24598375 C-0.75358837 147.74709297 -0.72488438 142.2482024 -0.69616115 136.74931192 C-0.45810987 91.16623784 -0.22683326 45.5831312 0 0 Z " fill="#131313" transform="translate(660,429)"/>
<path d="M0 0 C1.22990913 0.007183 1.22990913 0.007183 2.48466492 0.01451111 C5.21185845 0.03227271 7.93889808 0.05802748 10.66601562 0.08496094 C12.57059697 0.10166527 14.47517868 0.11832724 16.37976074 0.13494873 C20.38815098 0.17150183 24.39646615 0.2127124 28.40478516 0.25634766 C33.49226095 0.31079199 38.57969301 0.3476676 43.66735077 0.37997818 C47.6125252 0.4081552 51.55749507 0.44923003 55.5025177 0.49358368 C57.37437343 0.51254338 59.24628183 0.52695712 61.11820984 0.53638458 C76.43157145 0.62110563 91.80585942 1.64384614 106.38476562 6.75683594 C107.12275391 7.01102295 107.86074219 7.26520996 108.62109375 7.52709961 C120.08814616 11.68054953 129.45863444 18.48619548 138.07226562 27.06933594 C138.70777344 27.68164062 139.34328125 28.29394531 139.99804688 28.92480469 C154.26325581 43.75935677 158.16812045 66.26072822 158.07226562 86.06933594 C157.4858651 100.9319797 155.15720658 116.82049635 148.07226562 130.06933594 C147.60304688 130.9884375 147.13382813 131.90753906 146.65039062 132.85449219 C143.4831338 138.69883514 139.88780615 143.77874348 135.44726562 148.69433594 C134.992146 149.20327393 134.53702637 149.71221191 134.06811523 150.23657227 C131.31126554 153.171251 128.92760052 154.88629093 125.07226562 156.06933594 C125.07226562 156.72933594 125.07226562 157.38933594 125.07226562 158.06933594 C104.3021859 172.92649207 80.18128623 174.23348975 55.65820312 174.20214844 C53.79301948 174.20282303 51.92783593 174.20379435 50.06265259 174.20504761 C46.17799024 174.20651361 42.29335105 174.20440306 38.40869141 174.19970703 C33.41950356 174.19397045 28.43036905 174.19732028 23.44118309 174.2032795 C19.60148714 174.20688097 15.76180401 174.20574913 11.9221077 174.2031517 C10.08081684 174.20248334 8.23952483 174.20330772 6.39823532 174.20563126 C3.83951439 174.20815525 1.28088224 174.20432265 -1.27783203 174.19873047 C-2.0424173 174.2007547 -2.80700256 174.20277893 -3.59475708 174.2048645 C-8.81346327 174.18360704 -8.81346327 174.18360704 -9.92773438 173.06933594 C-10.02475042 170.85441733 -10.04960129 168.63633797 -10.04798889 166.41929626 C-10.04884332 165.71607083 -10.04969774 165.0128454 -10.05057806 164.28831011 C-10.0522349 161.91443077 -10.04670818 159.54062095 -10.04125977 157.16674805 C-10.04097791 155.47204083 -10.04113559 153.77733349 -10.04170227 152.08262634 C-10.04199032 147.46711968 -10.03609246 142.85163876 -10.02912831 138.23613811 C-10.02289593 133.4181333 -10.02229107 128.60012797 -10.02110291 123.78211975 C-10.01798925 114.65191096 -10.00977539 105.52171408 -9.99975342 96.39151055 C-9.98859335 85.99990918 -9.9830821 75.60830725 -9.97805798 65.21670139 C-9.96759281 43.83423958 -9.9499927 22.45178851 -9.92773438 1.06933594 C-6.7880389 -0.5005118 -3.44413717 -0.03644413 0 0 Z " fill="#F9F4EA" transform="translate(865.927734375,501.9306640625)"/>
</svg>
